<svg xmlns="http://www.w3.org/2000/svg" xmlns:xlink="http://www.w3.org/1999/xlink" width="256" height="318" preserveAspectRatio="xMidYMid" version="1.1" viewBox="0 0 256 318"><g><path fill="#002A41" d="M0,0 L0,171.944611 L127.983514,244.900539 L127.983514,195.308789 L42.3643479,146.5023 L42.3643479,69.8414195 L127.983514,118.647908 L127.983514,72.9559283 L0,0 L0,0 Z"/><path fill="#0071B5" d="M255.967029,0 L255.967029,171.944611 L127.983514,244.900539 L127.983514,195.308789 L213.602681,146.5023 L213.602681,69.8414195 L127.983514,118.647908 L127.983514,72.9559283 L255.967029,0 L255.967029,0 Z"/><path fill="#0071B5" d="M0,317.932684 L0,145.988073 L127.983514,73.0321441 L127.983514,122.623895 L42.3643479,171.430383 L42.3643479,244.191489 L127.983514,195.385004 L127.983514,244.976756 L0,317.932684 L0,317.932684 Z"/><path fill="#002A41" d="M255.967029,317.932684 L255.967029,145.988073 L127.983514,73.0321441 L127.983514,122.623895 L213.602681,171.430383 L213.602681,244.191489 L127.983514,195.385004 L127.983514,244.976756 L255.967029,317.932684 L255.967029,317.932684 Z"/></g></svg>