<svg xmlns="http://www.w3.org/2000/svg" xmlns:xlink="http://www.w3.org/1999/xlink" width="256" height="256" preserveAspectRatio="xMidYMid" version="1.1" viewBox="0 0 256 256"><defs><linearGradient id="linearGradient-1" x1="29.184%" x2="86.484%" y1="99.591%" y2=".354%"><stop offset="41.47%" stop-color="#51D3D9"/><stop offset="100%" stop-color="#C8FF8C"/></linearGradient><linearGradient id="linearGradient-2" x1="34.118%" x2="94.65%" y1="106.866%" y2="20.552%"><stop offset="41.47%" stop-color="#51D3D9"/><stop offset="100%" stop-color="#5A919B"/></linearGradient></defs><g><path fill="url(#linearGradient-1)" d="M255.96,198.32 C255.84,200.92 255.12,203.48 253.8,205.8 L229.56,247.8 C226.64,252.88 221.24,256 215.4,256 L80.88,256 C75.04,256 69.64,252.88 66.72,247.84 L2.2,136.2 C0.72,133.64 0,130.84 0,128 C0,125.16 0.56,122.2 2.28,119.32 L66.76,8.16 C69.68,3.12 75.08,0 80.88,0 L215.4,0 C221.24,0 226.64,3.12 229.56,8.16 C229.56,8.16 252.88,46.36 254.56,49.08 C256.24,51.8 255.96,55.24 255.96,58.04 C255.96,60.44 255.28,63.72 254.64,66.32 C254,68.92 234.48,148.04 234.48,148.04 L191.88,57.44 L104.56,57.44 L63.68,128 L104.56,198.56 L191.84,198.56 L255.96,198.32 L255.96,198.32 Z"/><path fill="url(#linearGradient-2)" d="M224.84,127.96 L254.44,190.72 C256.72,195.56 256.48,201.2 253.8,205.84 L191.88,198.6 L224.84,127.96 L224.84,127.96 Z"/></g></svg>